<svg xmlns="http://www.w3.org/2000/svg" viewBox="0 0 177.68 163.25"><defs><style>.cls-1{fill:#fafafa;}.cls-1,.cls-4,.cls-5,.cls-6,.cls-7,.cls-8{stroke:#4c0b0b;stroke-width:2px;}.cls-1,.cls-4,.cls-5{stroke-linecap:round;}.cls-1,.cls-4,.cls-5,.cls-7,.cls-8{stroke-linejoin:round;}.cls-2{fill:#afafaf;}.cls-3,.cls-4{fill:#cecece;}.cls-5{fill:none;}.cls-6{fill:#e2c72b;stroke-miterlimit:10;}.cls-7{fill:#e8e0b8;}.cls-8{fill:#ea8fc1;}</style></defs><title>Asset 6</title><g id="Layer_2" data-name="Layer 2"><g id="Layer_1-2" data-name="Layer 1"><path class="cls-1" d="M175.79,162.25H90.13c-4.74,0-.31-23.5-8.68-23.7H150.8c3.92,0,8.17,3.74,8.17,7,0,7.8,10.21,12.58,17.1,14.92A.9.9,0,0,1,175.79,162.25Z"/><path class="cls-2" d="M64.66,6.81l-.08,22.41H64.5l-5.11,0c-.45-9.2.51-19-2.66-28.15,0,0,0,0,0,0h0l1.62,0H61C63.16,1.11,64.66,2.07,64.66,6.81Z"/><path class="cls-3" d="M56.72,1s-8.5-2.24-8.5,5.7V29.07l11.17.1S61.56,1,56.72,1Z"/><path class="cls-4" d="M90.13,162.25H72.58c6,0,.5-23.91,8.87-23.7S85.39,162.25,90.13,162.25Z"/><path class="cls-5" d="M60.69,1h-.22"/><path class="cls-5" d="M64.58,6.82l-.08,22.4h0l-16.28-.16V6.71a8.9,8.9,0,0,1,0-.92,5.06,5.06,0,0,1,1.33-3.38l0,0C51.17.92,53.79,1,56.73,1h4C63,1.07,64.58,1.93,64.58,6.82Z"/><path class="cls-1" d="M159,11V145.58c0-3.3-4.25-7-8.17-7H81.45c-8.37-.21-2.92,23.7-8.87,23.7H72.5c-5.5,0-8.42-2-8.42-7.49L64.5,29.23h.08l.08-22.41c0-4.74-1.5-5.7-3.69-5.79L72.5,1H149A10,10,0,0,1,159,11Z"/><line class="cls-5" x1="60.97" y1="1.02" x2="60.69" y2="1.02"/><line class="cls-5" x1="77.14" y1="27.02" x2="100.84" y2="27.02"/><line class="cls-5" x1="88.99" y1="35.79" x2="125.7" y2="35.79"/><line class="cls-5" x1="117.51" y1="27.02" x2="142.96" y2="27.02"/><line class="cls-5" x1="77.14" y1="63" x2="102.59" y2="63"/><line class="cls-5" x1="77.14" y1="54.22" x2="132.72" y2="54.22"/><line class="cls-5" x1="107.34" y1="67.39" x2="139.75" y2="67.39"/><line class="cls-5" x1="75.67" y1="87.28" x2="139.75" y2="87.28"/><line class="cls-5" x1="75.67" y1="98.4" x2="92.06" y2="98.4"/><line class="cls-5" x1="103.76" y1="98.4" x2="129.07" y2="98.4"/><line class="cls-5" x1="135.06" y1="98.4" x2="139.75" y2="98.4"/><line class="cls-5" x1="75.67" y1="123.56" x2="109.83" y2="123.56"/><line class="cls-5" x1="117.51" y1="123.56" x2="137.41" y2="123.56"/><line class="cls-5" x1="83.87" y1="117.42" x2="109.83" y2="117.42"/><line class="cls-5" x1="96.85" y1="145.58" x2="122.19" y2="145.58"/><line class="cls-5" x1="109.83" y1="152.63" x2="132.72" y2="152.63"/><line class="cls-5" x1="132.72" y1="145.58" x2="142.96" y2="145.58"/><line class="cls-5" x1="96.85" y1="152.63" x2="104.93" y2="152.63"/><rect class="cls-6" x="1" y="155.51" width="47.22" height="5.59" rx="1.01" ry="1.01"/><polygon class="cls-7" points="47.21 161.1 55.65 158.31 47.21 155.51 47.21 161.1"/><rect class="cls-8" x="1" y="155.51" width="5.93" height="5.59"/></g></g></svg>