<svg xmlns="http://www.w3.org/2000/svg" viewBox="0 0 234.11 153.82"><defs><style>.cls-1{fill:#e1bb80;}.cls-2{fill:#806443;}.cls-3{fill:#e5e4e3;}.cls-12,.cls-4{fill:none;stroke:#000;stroke-miterlimit:10;}.cls-4{stroke-linecap:round;}.cls-5{fill:#fff;}.cls-6{fill:#d1d1d1;}.cls-7{fill:#fffef1;}.cls-8{fill:#f4e664;}.cls-9{fill:#fff368;}.cls-10{fill:#ce2e60;}.cls-11{fill:#70e0ff;}.cls-12{stroke-width:0.5px;}</style></defs><title>board</title><g id="Layer_2" data-name="Layer 2"><g id="Layer_1-2" data-name="Layer 1"><rect class="cls-1" x="2.11" y="1.98" width="229.89" height="149.86"/><path class="cls-2" d="M232,153.82H2.11a2.05,2.05,0,0,1-2.11-2V2A2.05,2.05,0,0,1,2.11,0H232a2.05,2.05,0,0,1,2.11,2V151.84A2.05,2.05,0,0,1,232,153.82Zm-227.78-4H229.89V4H4.22Z"/><rect class="cls-3" x="23.86" y="22.75" width="63" height="85" transform="translate(-9.88 9.88) rotate(-9.36)"/><line class="cls-4" x1="26.36" y1="43.6" x2="30.36" y2="42.85"/><line class="cls-4" x1="29.35" y1="57.14" x2="30.36" y2="56.95"/><polygon class="cls-5" points="30.36 19.72 30.36 104.72 71.73 104.72 76.43 102.72 93.36 88.72 93.36 19.72 30.36 19.72"/><path class="cls-6" d="M93.36,88.72h-15s.38,8-7.62,16C78.24,105.06,93.36,93.72,93.36,88.72Z"/><line class="cls-4" x1="37.36" y1="35.22" x2="85.36" y2="35.22"/><line class="cls-4" x1="37.36" y1="47.22" x2="85.36" y2="47.22"/><line class="cls-4" x1="37.36" y1="59.22" x2="85.36" y2="59.22"/><line class="cls-4" x1="37.36" y1="71.22" x2="85.36" y2="71.22"/><line class="cls-4" x1="37.36" y1="83.22" x2="85.36" y2="83.22"/><rect class="cls-7" x="117.83" y="29.22" width="25.38" height="25.38" transform="matrix(1, 0.04, -0.04, 1, 1.85, -5.38)"/><rect class="cls-8" x="134.98" y="63.34" width="25.38" height="25.38" transform="translate(13.43 -21.78) rotate(8.84)"/><rect class="cls-9" x="167.01" y="31.62" width="25.38" height="25.38" transform="matrix(0.99, -0.13, 0.13, 0.99, -4.22, 23.58)"/><rect class="cls-10" x="180.22" y="99.62" width="25.38" height="25.38" transform="matrix(-1, -0.04, 0.04, -1, 380.98, 232.54)"/><rect class="cls-11" x="147.27" y="76.03" width="25.38" height="25.38" transform="matrix(-0.99, -0.15, 0.15, -0.99, 304.38, 200.96)"/><rect class="cls-9" x="134.98" y="112.31" width="25.38" height="25.38" transform="translate(295.34 250) rotate(180)"/><line class="cls-12" x1="60.6" y1="26.62" x2="62.55" y2="24.72"/><circle class="cls-10" cx="62.29" cy="24.88" r="1.4"/></g></g></svg>