<svg xmlns="http://www.w3.org/2000/svg" viewBox="0 0 219.93 166.13"><defs><style>.cls-1{fill:#fafafa;}.cls-1,.cls-10,.cls-11,.cls-12,.cls-13,.cls-14,.cls-4,.cls-5,.cls-6,.cls-7,.cls-8,.cls-9{stroke:#4c0b0b;}.cls-1,.cls-4,.cls-5{stroke-linecap:round;}.cls-1,.cls-10,.cls-11,.cls-12,.cls-13,.cls-4,.cls-5,.cls-7,.cls-8,.cls-9{stroke-linejoin:round;}.cls-1,.cls-10,.cls-11,.cls-12,.cls-13,.cls-4,.cls-5,.cls-6,.cls-7,.cls-8,.cls-9{stroke-width:2px;}.cls-2{fill:#afafaf;}.cls-3,.cls-4{fill:#cecece;}.cls-5{fill:none;}.cls-6{fill:#e2c72b;}.cls-14,.cls-6{stroke-miterlimit:10;}.cls-7{fill:#e8e0b8;}.cls-8{fill:#ea8fc1;}.cls-9{fill:#fffef1;}.cls-10{fill:#f4e664;}.cls-11{fill:#fff368;}.cls-12,.cls-14{fill:#ce2e60;}.cls-13{fill:#70e0ff;}</style></defs><title>list_1</title><g id="Layer_2" data-name="Layer 2"><g id="Layer_1-2" data-name="Layer 1"><path class="cls-1" d="M176.3,165.13H90.64c-4.74,0-.31-23.5-8.68-23.7h69.35c3.92,0,8.17,3.74,8.17,7,0,7.8,10.21,12.58,17.1,14.92A.9.9,0,0,1,176.3,165.13Z"/><path class="cls-2" d="M65.17,9.69,65.09,32.1H65l-5.11,0c-.45-9.2.51-19-2.66-28.15,0,0,0,0,0,0h0l1.62,0h2.62C63.67,4,65.17,5,65.17,9.69Z"/><path class="cls-3" d="M57.23,3.88s-8.5-2.24-8.5,5.7V31.95L59.9,32S62.08,3.86,57.23,3.88Z"/><path class="cls-4" d="M90.64,165.13H73.09c6,0,.5-23.91,8.87-23.7S85.9,165.13,90.64,165.13Z"/><path class="cls-5" d="M61.2,3.9H61"/><path class="cls-5" d="M65.09,9.7,65,32.1h0L48.73,32V9.59a8.9,8.9,0,0,1,0-.92A5.06,5.06,0,0,1,50.1,5.29l0,0C51.68,3.8,54.3,3.85,57.24,3.9h4C63.5,4,65.09,4.81,65.09,9.7Z"/><path class="cls-1" d="M159.48,13.88V148.46c0-3.3-4.25-7-8.17-7H82c-8.37-.21-2.92,23.7-8.87,23.7H73c-5.5,0-8.42-2-8.42-7.49L65,32.11h.08l.08-22.41c0-4.74-1.5-5.7-3.69-5.79L73,3.88h76.47A10,10,0,0,1,159.48,13.88Z"/><line class="cls-5" x1="61.48" y1="3.9" x2="61.2" y2="3.9"/><line class="cls-5" x1="77.65" y1="29.9" x2="101.35" y2="29.9"/><line class="cls-5" x1="89.5" y1="38.67" x2="126.22" y2="38.67"/><line class="cls-5" x1="118.03" y1="29.9" x2="143.48" y2="29.9"/><line class="cls-5" x1="77.65" y1="65.88" x2="103.11" y2="65.88"/><line class="cls-5" x1="77.65" y1="57.1" x2="133.24" y2="57.1"/><line class="cls-5" x1="107.86" y1="70.27" x2="140.26" y2="70.27"/><line class="cls-5" x1="76.19" y1="90.16" x2="140.26" y2="90.16"/><line class="cls-5" x1="76.19" y1="101.28" x2="92.57" y2="101.28"/><line class="cls-5" x1="104.28" y1="101.28" x2="129.58" y2="101.28"/><line class="cls-5" x1="135.58" y1="101.28" x2="140.26" y2="101.28"/><line class="cls-5" x1="76.19" y1="126.44" x2="110.34" y2="126.44"/><line class="cls-5" x1="118.03" y1="126.44" x2="137.92" y2="126.44"/><line class="cls-5" x1="84.38" y1="120.3" x2="110.34" y2="120.3"/><line class="cls-5" x1="97.36" y1="148.46" x2="122.71" y2="148.46"/><line class="cls-5" x1="110.34" y1="155.51" x2="133.24" y2="155.51"/><line class="cls-5" x1="133.24" y1="148.46" x2="143.48" y2="148.46"/><line class="cls-5" x1="97.36" y1="155.51" x2="105.45" y2="155.51"/><rect class="cls-6" x="1.52" y="158.39" width="47.22" height="5.59" rx="1.01" ry="1.01"/><polygon class="cls-7" points="47.72 163.98 56.16 161.19 47.72 158.39 47.72 163.98"/><rect class="cls-8" x="1.52" y="158.39" width="5.93" height="5.59"/><rect class="cls-9" x="185.61" y="25.98" width="25.38" height="25.38" transform="matrix(1, 0.04, -0.04, 1, 1.78, -8.2)"/><rect class="cls-10" x="179.47" y="71.13" width="25.38" height="25.38" transform="translate(15.16 -28.53) rotate(8.84)"/><rect class="cls-11" x="20.82" y="99.53" width="25.38" height="25.38" transform="matrix(0.99, -0.13, 0.13, 0.99, -14.21, 5.27)"/><rect class="cls-12" x="1.52" y="63.87" width="25.38" height="25.38" transform="matrix(-1, -0.04, 0.04, -1, 25.22, 153.63)"/><rect class="cls-13" x="191.75" y="83.82" width="25.38" height="25.38" transform="matrix(-0.99, -0.15, 0.15, -0.99, 391.63, 223.28)"/><rect class="cls-11" x="1.52" y="25.98" width="25.38" height="25.38" transform="translate(28.41 77.34) rotate(180)"/><line class="cls-1" x1="112.65" y1="7.3" x2="116.87" y2="3.19"/><circle class="cls-14" cx="116.3" cy="3.53" r="3.03"/></g></g></svg>