<svg xmlns="http://www.w3.org/2000/svg" xmlns:xlink="http://www.w3.org/1999/xlink" viewBox="0 0 174.03 59"><defs><style>.cls-1{fill:none;}.cls-2{fill:#4030e8;}.cls-3{clip-path:url(#clip-path);}.cls-4{fill:#fafafa;}</style><clipPath id="clip-path"><rect class="cls-1" x="9.67" y="15.8" width="41.66" height="33.62"/></clipPath></defs><title>logo-mark</title><g id="Layer_2" data-name="Layer 2"><g id="Layer_1-2" data-name="Layer 1"><circle class="cls-2" cx="29.5" cy="29.5" r="29.5"/><g class="cls-3"><path class="cls-4" d="M45,15.8,24.14,36.62,16,28.53,9.67,34.89,24.14,49.36l27.2-27.19Zm0,0"/></g><path d="M77.34,13.43v29H88.51v7H69v-36Z"/><path d="M96.71,10.57a4.53,4.53,0,1,1-4.53,4.53A4.49,4.49,0,0,1,96.71,10.57Zm3.88,14.78V49.41H92.83V25.35Z"/><path d="M121.91,31.5a8.83,8.83,0,0,0-4.26-1.35,3.3,3.3,0,0,0-2.21.7,1.66,1.66,0,0,0-.49,1.08A1.26,1.26,0,0,0,115.7,33a14,14,0,0,0,2.32.81l2.05.65a10.23,10.23,0,0,1,4,2.1A5.74,5.74,0,0,1,126,41.16a8.74,8.74,0,0,1-2.48,6.31c-2.37,2.37-5.29,2.75-7.82,2.75a14.3,14.3,0,0,1-9.87-3.45l3.29-5.23a13.37,13.37,0,0,0,2.64,1.78,7.27,7.27,0,0,0,3.24.75,4.35,4.35,0,0,0,2.43-.54,2,2,0,0,0,.81-1.56,1.59,1.59,0,0,0-.86-1.4,10.24,10.24,0,0,0-2.37-.86L113,39.11a9.61,9.61,0,0,1-3.88-2.21,5.94,5.94,0,0,1-1.73-4.37A7.45,7.45,0,0,1,109.71,27,10.61,10.61,0,0,1,117,24.54a15.19,15.19,0,0,1,8,2Z"/><path d="M138.58,31.61V49.41h-7.77V31.61h-2.7V25.35h2.7V17.58h7.77v7.77h4.8v6.26Z"/><path d="M146.73,25.35h7.77v3.78a8.63,8.63,0,0,1,3-3.35,7.45,7.45,0,0,1,4.15-1,7.79,7.79,0,0,1,2.54.38l-.43,7.28a7.34,7.34,0,0,0-3.51-.86,5.07,5.07,0,0,0-3.88,1.62c-1.73,1.83-1.89,4.42-1.89,6.47v9.77h-7.77Z"/><path d="M169.12,40.46a4.91,4.91,0,1,1-4.91,4.91A4.86,4.86,0,0,1,169.12,40.46Z"/></g></g></svg>